<?xml version="1.0" encoding="UTF-8"?>
<svg id="b" data-name="Lager 2" xmlns="http://www.w3.org/2000/svg" viewBox="0 0 93.6 70.75">
  <defs>
    <style>
      .d {
        fill: #f5f4f5;
      }
    </style>
  </defs>
  <g id="c" data-name="Lager 2">
    <g>
      <path class="d" d="M34.91,63.91c2.34-16.39,1.89-33.11-1.4-49.34-.95-4.68-2.14-9.31-3.55-13.87-.38-1.23-2.31-.7-1.93.53,4.81,15.56,6.93,31.89,6.24,48.16-.2,4.68-.63,9.35-1.29,13.99-.18,1.26,1.75,1.8,1.93.53h0Z"/>
      <path class="d" d="M52.29,64.28c7.32-15.55,15.2-30.84,23.63-45.82,2.39-4.25,4.83-8.48,7.3-12.68.66-1.11-1.07-2.12-1.73-1.01-8.73,14.81-16.93,29.93-24.57,45.33-2.17,4.37-4.29,8.76-6.36,13.17-.55,1.16,1.18,2.17,1.73,1.01h0Z"/>
      <path class="d" d="M67.78,70.43c7.01-7.89,15.63-14.15,25.29-18.39,1.18-.52.16-2.24-1.01-1.73-9.8,4.3-18.59,10.7-25.7,18.7-.85.96.56,2.38,1.41,1.41h0Z"/>
      <path class="d" d="M13.97,58.81c-.62-12.17-4.81-24-12.05-33.81-.76-1.02-2.49-.03-1.73,1.01,7.03,9.53,11.17,20.97,11.77,32.8.07,1.28,2.07,1.29,2,0h0Z"/>
    </g>
  </g>
</svg>